<?xml version="1.0" encoding="utf-8"?>
<!-- Generator: Adobe Illustrator 24.1.0, SVG Export Plug-In . SVG Version: 6.00 Build 0)  -->
<svg version="1.1" xmlns="http://www.w3.org/2000/svg" xmlns:xlink="http://www.w3.org/1999/xlink" x="0px" y="0px"
	 viewBox="0 0 512 512" style="enable-background:new 0 0 512 512;" xml:space="preserve">
<style type="text/css">
	.st0{fill:#FFFFFF;}
	.st1{fill:#00953B;}
	.st2{fill:#CE0E2D;}
	.st3{fill:#5C5C60;}
	.st4{fill:#F5A800;}
	.st5{fill:#F19800;}
	.st6{display:none;}
	.st7{display:inline;fill:#FFFFFF;}
	.st8{display:inline;}
</style>
<g id="Layer_1">
	<rect class="st0" width="512" height="512"/>
	<g>
		<path class="st1" d="M102,135.42c-8.68,15.32-2.38,35.29-2.38,35.29s20.36-4.87,29.04-20.19c8.68-15.32,2.38-35.29,2.38-35.29
			S110.67,120.11,102,135.42"/>
		<path class="st1" d="M79.43,141.67c15.31,8.68,20.19,29.04,20.19,29.04s-19.97,6.3-35.29-2.38
			c-15.32-8.67-20.19-29.04-20.19-29.04S64.11,132.99,79.43,141.67"/>
		<path class="st2" d="M161.77,219.62c0,31.56-25.58,57.14-57.13,57.14s-57.13-25.58-57.13-57.14c0-31.55,25.58-57.13,57.13-57.13
			S161.77,188.07,161.77,219.62"/>
		<path class="st3" d="M192.01,279.65h-4.51c-0.79,0-1.45-0.66-1.45-1.46v-8.39c0-0.8,0.66-1.46,1.45-1.46h3.7
			c2.48,0,4.04,1.12,4.04,3.04c0,0.8-0.34,1.49-1.09,2.19c1.09,0.5,1.82,1.5,1.82,2.63C195.97,278.25,194.17,279.65,192.01,279.65
			 M191.06,270.66h-2.11v2.21h2.06c0.88,0,1.27-0.56,1.27-1.15C192.29,271.12,191.79,270.66,191.06,270.66 M191.73,275.06h-2.77
			v2.24h2.8c0.66,0,1.28-0.41,1.28-1.1C193.04,275.47,192.42,275.06,191.73,275.06"/>
		<path class="st3" d="M204.53,279.65l-0.78-2.09h-4.06l-0.78,2.09h-2.84l4.38-10.6c0.22-0.53,0.71-0.83,1.27-0.83
			c0.56,0,1.04,0.31,1.26,0.83l4.38,10.6H204.53z M201.72,272.06l-1.24,3.36h2.48L201.72,272.06z"/>
		<path class="st3" d="M217.68,279.73c-0.48,0.07-0.95-0.05-1.32-0.46l-5.25-5.89v6.26h-2.87v-9.96c0-0.8,0.66-1.46,1.46-1.46
			c0.4,0,0.75,0.1,1.1,0.51c1.49,1.7,2.9,3.28,5.26,6.06v-6.45h2.87v9.95C218.94,279.02,218.39,279.63,217.68,279.73"/>
		<path class="st3" d="M226.69,279.83c-3.87,0-6.37-2.6-6.37-5.84c0-3.24,2.46-5.82,6.37-5.82c1.29,0,2.46,0.2,3.33,0.53l-0.63,2.41
			c-0.61-0.2-1.54-0.36-2.29-0.36c-2.8,0-3.79,1.6-3.79,3.24c0,1.63,0.99,3.26,3.79,3.26c0.75,0,1.68-0.15,2.29-0.34l0.63,2.35
			C229.17,279.63,227.88,279.83,226.69,279.83"/>
		<path class="st3" d="M236.76,279.83c-3.51,0-5.88-2.62-5.88-5.82c0-3.21,2.36-5.84,5.88-5.84c3.51,0,5.88,2.63,5.88,5.84
			C242.63,277.22,240.27,279.83,236.76,279.83 M236.76,270.75c-1.9,0-2.97,1.41-2.97,3.26c0,1.85,1.07,3.24,2.97,3.24
			c1.9,0,2.97-1.39,2.97-3.24C239.73,272.16,238.66,270.75,236.76,270.75"/>
		<path class="st3" d="M248,279.83c-1.5,0-3.22-0.35-4.66-0.85l0.53-2.27c1.31,0.34,2.89,0.68,4.18,0.68c1.27,0,2.07-0.22,2.07-0.84
			c0-0.49-1.14-0.88-3.26-1.78c-2.1-0.88-3.09-1.76-3.09-3.43c0-2.17,1.46-3.17,4.8-3.17c1.39,0,3.01,0.22,4.26,0.58l-0.42,2.34
			c-1.33-0.27-2.62-0.44-3.8-0.44c-1.6,0-1.95,0.21-1.95,0.61c0,0.56,0.75,0.8,2.77,1.7c2.33,1.03,3.62,1.49,3.62,3.36
			C253.04,279.11,250.37,279.83,248,279.83"/>
		<path class="st3" d="M260.71,279.65h-1.44c-0.8,0-1.44-0.66-1.44-1.46v-8.39c0-0.8,0.65-1.46,1.44-1.46h1.22
			c4.77,0,7.51,2.58,7.51,5.65S265.48,279.65,260.71,279.65 M261.2,270.92h-0.48v6.15h0.48c2.11,0,3.85-0.87,3.85-3.07
			C265.05,271.78,263.31,270.92,261.2,270.92"/>
		<path class="st3" d="M272.1,270.8v1.88h3.77c0.69,0,1.26,0.53,1.26,1.22c0,0.71-0.56,1.22-1.26,1.22h-3.77v2.05h5.57v2.46h-7.03
			c-0.8,0-1.44-0.66-1.44-1.46v-8.39c0-0.8,0.65-1.46,1.44-1.46h7.05v2.46H272.1z"/>
		<path class="st3" d="M289.74,279.65l-0.78-2.09h-4.06l-0.78,2.09h-2.83l4.38-10.6c0.22-0.53,0.72-0.83,1.28-0.83
			c0.56,0,1.04,0.31,1.25,0.83l4.38,10.6H289.74z M286.93,272.06l-1.24,3.36h2.48L286.93,272.06z"/>
		<path class="st3" d="M294.88,279.65c-0.8,0-1.43-0.66-1.43-1.46v-9.85h2.9v8.81h5.75v2.5H294.88z"/>
		<rect x="303.25" y="268.34" class="st3" width="2.9" height="11.31"/>
		<path class="st3" d="M317.74,279.65v-5.74l-2.12,3.14c-0.17,0.25-0.53,0.63-1.12,0.63c-0.6,0-0.97-0.39-1.14-0.65l-2.1-3.13v5.74
			h-2.78v-10c0-0.78,0.56-1.43,1.39-1.43c0.51,0,0.88,0.2,1.14,0.58l3.5,5.18l3.5-5.18c0.25-0.37,0.65-0.58,1.17-0.58
			c0.77,0,1.36,0.61,1.36,1.39v10.03H317.74z"/>
		<path class="st3" d="M325.67,270.8v1.88h3.77c0.69,0,1.26,0.53,1.26,1.22c0,0.71-0.56,1.22-1.26,1.22h-3.77v2.05h5.57v2.46h-7.03
			c-0.8,0-1.44-0.66-1.44-1.46v-8.39c0-0.8,0.65-1.46,1.44-1.46h7.05v2.46H325.67z"/>
		<path class="st3" d="M342.43,279.73c-0.48,0.07-0.95-0.05-1.33-0.46l-5.25-5.89v6.26h-2.87v-9.96c0-0.8,0.66-1.46,1.46-1.46
			c0.4,0,0.75,0.1,1.1,0.51c1.49,1.7,2.91,3.28,5.26,6.06v-6.45h2.87v9.95C343.68,279.02,343.14,279.63,342.43,279.73"/>
		<polygon class="st3" points="351.18,270.87 351.18,279.65 348.28,279.65 348.28,270.87 344.63,270.87 344.63,268.34 
			354.84,268.34 354.84,270.87 		"/>
		<path class="st3" d="M360.81,279.83c-3.51,0-5.88-2.62-5.88-5.82c0-3.21,2.36-5.84,5.88-5.84c3.51,0,5.88,2.63,5.88,5.84
			C366.68,277.22,364.32,279.83,360.81,279.83 M360.81,270.75c-1.9,0-2.97,1.41-2.97,3.26c0,1.85,1.07,3.24,2.97,3.24
			c1.9,0,2.97-1.39,2.97-3.24C363.78,272.16,362.71,270.75,360.81,270.75"/>
		<path class="st3" d="M372.05,279.83c-1.5,0-3.23-0.35-4.66-0.85l0.53-2.27c1.31,0.34,2.89,0.68,4.18,0.68
			c1.27,0,2.07-0.22,2.07-0.84c0-0.49-1.14-0.88-3.26-1.78c-2.1-0.88-3.09-1.76-3.09-3.43c0-2.17,1.46-3.17,4.8-3.17
			c1.39,0,3.01,0.22,4.26,0.58l-0.42,2.34c-1.32-0.27-2.61-0.44-3.81-0.44c-1.59,0-1.95,0.21-1.95,0.61c0,0.56,0.75,0.8,2.77,1.7
			c2.33,1.03,3.62,1.49,3.62,3.36C377.09,279.11,374.42,279.83,372.05,279.83"/>
		<path class="st3" d="M384.76,279.65h-1.44c-0.8,0-1.44-0.66-1.44-1.46v-8.39c0-0.8,0.65-1.46,1.44-1.46h1.22
			c4.77,0,7.51,2.58,7.51,5.65S389.53,279.65,384.76,279.65 M385.25,270.92h-0.48v6.15h0.48c2.11,0,3.86-0.87,3.86-3.07
			C389.11,271.78,387.36,270.92,385.25,270.92"/>
		<path class="st3" d="M396.15,270.8v1.88h3.77c0.7,0,1.26,0.53,1.26,1.22c0,0.71-0.56,1.22-1.26,1.22h-3.77v2.05h5.57v2.46h-7.03
			c-0.8,0-1.44-0.66-1.44-1.46v-8.39c0-0.8,0.65-1.46,1.44-1.46h7.04v2.46H396.15z"/>
		<path class="st3" d="M415.96,279.65v-5.74l-2.12,3.14c-0.17,0.25-0.53,0.63-1.12,0.63c-0.59,0-0.97-0.39-1.14-0.65l-2.1-3.13v5.74
			h-2.78v-10c0-0.78,0.56-1.43,1.39-1.43c0.5,0,0.88,0.2,1.14,0.58l3.5,5.18l3.5-5.18c0.26-0.37,0.65-0.58,1.18-0.58
			c0.76,0,1.35,0.61,1.35,1.39v10.03H415.96z"/>
		<path class="st3" d="M423.88,270.8v1.88h3.77c0.69,0,1.25,0.53,1.25,1.22c0,0.71-0.56,1.23-1.25,1.23h-3.77v2.05h5.57v2.46h-7.03
			c-0.8,0-1.44-0.66-1.44-1.46v-8.39c0-0.8,0.65-1.46,1.44-1.46h7.05v2.46H423.88z M426.26,267.57h-1.73l1.54-2.31h2.77
			L426.26,267.57z"/>
		<polygon class="st3" points="437.62,279.65 435.49,276.18 433.39,279.65 430.18,279.65 433.9,273.94 430.27,268.34 433.47,268.34 
			435.49,271.67 437.53,268.34 440.73,268.34 437.11,273.94 440.81,279.65 		"/>
		<rect x="442.11" y="268.34" class="st3" width="2.91" height="11.31"/>
		<path class="st3" d="M452.86,279.83c-3.87,0-6.37-2.6-6.37-5.84c0-3.24,2.47-5.82,6.37-5.82c1.29,0,2.47,0.2,3.33,0.53l-0.63,2.41
			c-0.61-0.2-1.54-0.36-2.29-0.36c-2.8,0-3.79,1.6-3.79,3.24c0,1.63,0.99,3.26,3.79,3.26c0.75,0,1.69-0.15,2.29-0.34l0.63,2.35
			C455.34,279.63,454.05,279.83,452.86,279.83"/>
		<path class="st3" d="M462.93,279.83c-3.51,0-5.88-2.62-5.88-5.82c0-3.21,2.36-5.84,5.88-5.84c3.51,0,5.87,2.63,5.87,5.84
			C468.8,277.22,466.44,279.83,462.93,279.83 M462.93,270.75c-1.9,0-2.97,1.41-2.97,3.26c0,1.85,1.07,3.24,2.97,3.24
			c1.9,0,2.97-1.39,2.97-3.24C465.9,272.16,464.83,270.75,462.93,270.75"/>
		<path class="st3" d="M185.59,255.76c-0.12-1.06-0.24-2.71-0.24-4.72c0-4.25,0.24-14.15,0.83-29.6
			c0.59-15.45,0.94-24.29,0.94-26.53c0-3.3-0.82-6.25-1.41-7.19l-0.47-0.71c2.01-1.29,9.67-2,23.11-2c7.9,0,14.86,1.65,20.87,5.07
			c6.01,3.3,8.96,8.02,8.96,14.15c0,5.07-3.77,10.14-8.49,12.14v0.59c2.83,1.3,5.54,3.54,8.14,6.61c2.59,2.95,3.89,6.72,3.89,11.08
			c0,13.68-8.84,22.88-29.12,22.88C202.81,257.53,193.85,256.94,185.59,255.76 M216.96,228.64c-3.77-3.3-7.19-3.66-9.67-3.66
			c0,0.35-0.12,2.36-0.24,6.13c-0.12,3.77-0.12,6.72-0.12,8.73c0,4.13,1.18,5.31,4.13,5.31c6.01,0,9.08-2.83,9.08-10.38
			C220.02,232.29,218.96,230.17,216.96,228.64 M208.11,197.75l-0.59,14.74c0.59,0.12,1.3,0.12,2.36,0.12c8.49,0,9.43-5.43,9.43-7.67
			C219.32,200.1,215.54,197.75,208.11,197.75"/>
		<path class="st3" d="M280.15,234.89h-16.63l-1.65,5.78c-1.88,7.07-3.54,13.09-3.54,15.09h-15.45l21.34-62.73
			c0.35-0.83,0.47-1.77,0.47-2.83c0-1.89-0.24-3.07-0.82-3.66c2.94-1.06,5.89-1.53,9.08-1.53c3.77,0,5.66,0.12,9.08,1.06
			c3.66,0.94,6.01,3.42,7.31,7.19l16.63,55.3c0.94,3.19,1.89,5.78,2.36,6.6l0.35,0.59h-23.35L280.15,234.89z M271.66,204.11
			l-5.07,18.98h11.08l-5.07-18.98H271.66z"/>
		<path class="st2" d="M343.11,195.15c3.19,4.36,4.95,7.78,6.49,13.44c1.77,5.54,2.36,8.37,3.3,13.68h0.95l1.77-5.78l3.89-12.62
			l2.59-8.73c1.77-6.72,7.55-10.14,17.33-10.14c3.3,0,7.08,0.82,8.84,1.41l1.18,0.59c0,1.3,0.12,4.48,0.12,5.9
			c0,5.19-0.12,14.03-0.35,26.53c-0.12,12.38-0.24,21.11-0.24,25.94c0,5.42,0.12,8.84,0.24,10.38h-21.58
			c-0.12-2.24-0.24-4.25-0.24-6.13c0-17.69,0.59-31.6,1.88-41.86h-1.06l-14.27,47.99h-11.56c-0.95-5.54-2.95-13.91-6.13-25.23
			c-3.07-11.32-6.01-18.98-8.73-22.88h-0.94c0.24,3.07,0.35,8.14,0.35,15.09c0,3.89,0,9.79-0.12,17.57
			c-0.12,7.78-0.12,12.97-0.12,15.45h-0.12h-0.12h-0.12h-0.11h-0.12h-0.12h-0.12h-0.12h-0.12h-0.12h-0.12h-0.12h-0.12h-0.12h-0.12
			h-0.12h-0.12h-0.12h-0.12h-0.12h-0.12h-0.12h-0.12h-0.12h-0.12h-0.12h-0.12h-0.12h-0.12h-0.12h-0.12h-0.12h-0.12h-0.12h-0.12
			h-0.12h-0.12h-0.12h-0.12h-0.12h-0.12h-0.12h-0.12h-0.12h-0.12h-0.12h-0.12h-0.12h-0.12h-0.12h-0.12h-0.12h-0.12h-0.12h-0.12
			h-0.12H320h-0.11h-0.12h-0.12h-0.12h-0.12h-0.12h-0.12h-0.12h-0.12h-0.12h-0.11h-0.12h-0.12h-0.12h-0.12h-0.12H318h-0.12h-0.12
			h-0.12h-0.12h-0.12h-0.12h-0.12h-0.12h-0.12h-0.12h-0.12h-0.12h-0.12h-0.12h-0.12h-0.12H316h-0.12h-0.12h-0.12h-0.12h-0.12h-0.12
			h-0.12h-0.12h-0.12h-0.11h-0.12h-0.12h-0.12h-0.12h-0.12h-0.12h-0.12h-0.12h-0.12h-0.12h-0.12h-0.12h-0.12h-1.06
			c-0.12-0.71-0.12-1.89-0.12-3.54c0-6.25,0.24-16.5,0.82-31.01c0.59-14.5,0.94-23.23,0.94-26.29c0-4.83-1.53-7.78-1.88-7.9
			c2.83-1.29,6.25-2,10.14-2C331.91,185.01,338.75,189.02,343.11,195.15"/>
		<path class="st2" d="M415.63,234.18c2.83-4.48,5.19-8.96,7.08-13.56c-3.66-8.14-6.6-13.44-9.08-16.04
			c-2.48-2.71-4.95-4.01-7.43-4.01c-0.59,0-1.65,0.23-3.19,0.82c-2.12-1.42-3.18-3.66-3.18-6.6c0-5.07,4.01-9.91,12.5-9.91
			c10.5,0,17.1,7.55,24.06,19.46h0.71c7.66-12.85,14.97-19.34,22.05-19.34c4.6,0,8.84,2.36,8.84,8.02c0,4.95-2.48,7.66-7.43,8.02
			c-0.35-0.35-1.06-0.47-1.89-0.47c-2.48,0-4.95,1.3-7.55,4.01c-5.07,5.19-7.78,10.97-7.78,11.79c7.67,16.63,14.03,24.88,19.1,24.88
			l3.89-0.59c1.06,2.47,1.53,4.72,1.53,6.72c0,5.54-4.36,10.14-14.39,10.14c-8.37,0-16.27-8.02-23.82-23.94h-0.59
			c-7.08,15.92-14.5,23.94-22.17,23.94c-6.01,0-11.08-4.01-11.08-9.55c0-4.6,3.3-9.08,8.49-9.08c0.59,1.3,1.89,1.89,3.89,1.89
			C410.44,240.79,412.92,238.54,415.63,234.18"/>
		<path class="st4" d="M150.25,226.27c-14.23,29.06-39.57,30.93-39.57,25.2c0-5.73,12.74-9.9,12.74-16.86
			c0-3.43-2.72-5.91-5.54-5.91c-6.66,0-16.37,8.53-27.21,12.39c-2.96,1.2-6.21,1.87-9.6,1.87c-30.14,0-31.34-54.06-6.05-72.2
			c-9.46,5.49-29.82,19.12-30.79,50.58c-0.93,30.28,26.93,58.31,59.16,58.31c31.73,0,58.29-31.37,58.29-55.99
			C161.63,219.58,153.81,217.39,150.25,226.27"/>
		<path class="st0" d="M88.85,189.23c0.57,2.13-0.7,4.33-2.83,4.9c-2.13,0.57-4.32-0.69-4.9-2.83c-0.57-2.13,0.7-4.33,2.83-4.9
			C86.09,185.82,88.28,187.09,88.85,189.23"/>
		<path class="st0" d="M123.68,179.89c0.57,2.14-0.69,4.33-2.83,4.9c-2.13,0.57-4.33-0.69-4.9-2.83c-0.57-2.13,0.69-4.33,2.83-4.9
			C120.91,176.49,123.11,177.76,123.68,179.89"/>
		<path class="st0" d="M112.18,222.12c11.75-3.15,18.73-15.23,15.58-26.99l-42.56,11.4C88.35,218.29,100.43,225.27,112.18,222.12"/>
		<path class="st5" d="M465.72,394.14l-0.82-1.23c-1.03-1.65-2.47-6.79-2.47-12.55c0-1.63-0.18-5.28-0.31-10.91v-36.55
			c0-15.53-12.59-28.12-28.12-28.12H75.74c-0.79,0-1.56,0.04-2.33,0.1c-16.72,0.34-26.49,1.51-29.4,3.4l0.82,1.24
			c1.03,1.64,2.47,6.79,2.47,12.55c0,1.63,0.18,22.77,0.31,28.41v19.05c0,15.53,12.59,28.12,28.13,28.12h358.25
			c0.78,0,1.56-0.04,2.33-0.1C453.04,397.2,462.8,396.03,465.72,394.14"/>
		<path class="st0" d="M70.46,352.66c0-6.19,1.61-11.02,4.89-14.49c3.28-3.47,7.55-5.2,12.94-5.2c6.75,0,11.21,2.48,11.21,6.25
			c0,2.91-1.92,4.33-5.7,4.33c0,0-1.73-4.27-5.7-4.27c-1.55,0-2.79,0.68-3.78,2.1c-1.92,2.79-2.35,6.38-2.35,10.65
			c0,8.05,1.79,12.08,5.45,12.08c3.65,0,5.08-2.73,5.08-6.25c0-2.97-0.25-5.2-0.5-5.88l-0.12-0.5c1.3-0.31,3.28-0.5,5.82-0.5
			c3.1,0,4.64,1.3,4.64,3.9l-0.56,10.03c-2.97,4.09-8.11,6.13-15.42,6.13C76.47,371.05,70.46,364.99,70.46,352.66"/>
		<path class="st0" d="M125.21,334.09c1.61-0.68,3.96-1.05,7-1.05c4.89,0,5.08,2.54,5.08,4.33c0,1.18-0.12,4.58-0.31,10.09
			c-0.19,5.51-0.31,9.41-0.43,11.58c-0.56,8.42-5.95,12.01-16.54,12.01c-3.16,0-6.25-0.74-9.23-2.48c-2.91-1.73-4.89-5.14-4.89-9.54
			c0-0.18,0.06-3.03,0.12-8.48c0.12-5.51,0.19-9.6,0.19-12.32c0-1.67-0.43-3.22-0.74-3.78l-0.25-0.37c0-0.12,2.79-1.05,7-1.05
			c4.21,0,5.14,1.67,5.14,4.33c0,1.61-0.06,4.95-0.12,10.09c-0.06,5.08-0.12,8.61-0.12,10.65c0,3.96,0.93,6.01,3.84,6.01
			c3.53,0,4.46-1.67,4.89-6.07c0.25-2.91,0.37-9.47,0.37-19.82c0-1.67-0.43-3.22-0.74-3.78L125.21,334.09z"/>
		<path class="st0" d="M159.69,359.17h-8.73l-0.87,3.03c-0.99,3.72-1.86,6.87-1.86,7.93h-8.11l11.21-32.94
			c0.19-0.43,0.25-0.93,0.25-1.49c0-0.99-0.12-1.61-0.43-1.92c1.55-0.56,3.1-0.81,4.77-0.81c1.98,0,2.97,0.06,4.77,0.56
			c1.92,0.5,3.16,1.8,3.84,3.78l8.73,29.04c0.5,1.67,0.99,3.03,1.24,3.47l0.18,0.31h-12.26L159.69,359.17z M155.23,343.01
			l-2.66,9.97h5.82l-2.66-9.97H155.23z"/>
		<path class="st0" d="M184.92,370.84l-5.26-0.43l-2.17-0.25c-0.06-0.8-0.12-1.92-0.12-3.22c0.06-3.03,0.25-7.86,0.56-14.55
			c0.31-6.69,0.5-11.39,0.5-14.18c0-1.8-0.43-3.28-0.74-3.78l-0.25-0.37c0.68-0.68,4.64-1.05,11.89-1.05
			c7.37,0,12.88,2.29,15.79,5.82c2.97,3.53,4.27,7.55,4.27,12.2c0,1.98-0.06,3.72-0.25,5.2c-0.19,1.49-0.62,3.22-1.36,5.26
			c-0.74,1.98-1.8,3.59-3.1,4.89c-2.66,2.54-7.8,4.7-14.8,4.7C188.64,371.09,186.97,371.02,184.92,370.84 M190.25,339.38h-0.8
			c-0.5,14.86-0.74,23.09-0.74,24.77h1.92c3.03,0,5.33-1.8,6.38-4.52c1.18-2.79,1.61-5.51,1.61-8.67
			C198.61,343.22,195.82,339.38,190.25,339.38"/>
		<path class="st0" d="M231.78,359.17h-8.73l-0.87,3.03c-0.99,3.72-1.86,6.87-1.86,7.93h-8.11l11.21-32.94
			c0.19-0.43,0.25-0.93,0.25-1.49c0-0.99-0.12-1.61-0.43-1.92c1.55-0.56,3.1-0.81,4.77-0.81c1.98,0,2.97,0.06,4.77,0.56
			c1.92,0.5,3.16,1.8,3.84,3.78l8.73,29.04c0.5,1.67,0.99,3.03,1.24,3.47l0.18,0.31h-12.26L231.78,359.17z M227.33,343.01
			l-2.66,9.97h5.82l-2.66-9.97H227.33z"/>
		<path class="st0" d="M249.73,370.13c-0.06-0.43-0.12-1.55-0.12-3.22c0-2.41,0.19-7.18,0.5-14.3c0.31-7.12,0.5-11.95,0.5-14.43
			c0-1.74-0.43-3.22-0.74-3.72l-0.25-0.43c1.49-0.68,3.84-1.05,7-1.05c1.98,0,3.34,0.5,4.03,1.05c0.31,0.25,0.56,0.68,0.74,1.24
			c0.43,1.05,0.37,1.49,0.37,2.91c-0.43,8.98-0.68,16.78-0.8,23.34h7.31c1.67,0,3.16-0.37,3.65-0.62l0.37-0.19
			c2.04,1.36,3.03,2.85,3.03,4.52c0,3.28-2.11,4.89-6.32,4.89H249.73z"/>
		<path class="st0" d="M297.81,359.17h-8.73l-0.87,3.03c-0.99,3.72-1.86,6.87-1.86,7.93h-8.11l11.21-32.94
			c0.19-0.43,0.25-0.93,0.25-1.49c0-0.99-0.12-1.61-0.43-1.92c1.55-0.56,3.1-0.81,4.77-0.81c1.98,0,2.97,0.06,4.77,0.56
			c1.92,0.5,3.16,1.8,3.84,3.78l8.73,29.04c0.5,1.67,0.99,3.03,1.24,3.47l0.18,0.31h-12.26L297.81,359.17z M293.36,343.01
			l-2.66,9.97h5.82l-2.66-9.97H293.36z"/>
		<path class="st0" d="M324.65,375.51c-1.98,3.28-5.82,4.95-11.46,4.95c-1.67,0-3.22-0.37-4.58-1.18c-1.36-0.8-2.04-1.86-2.04-3.22
			c0-1.55,1.24-3.03,3.22-3.03c0.25,0.43,0.93,0.68,2.11,0.68c2.73,0,4.58-1.98,4.58-9.16c-0.06-12.01-0.06-20.8-0.06-26.38
			c0-1.73-0.43-3.22-0.74-3.72l-0.25-0.43c1.49-0.68,3.84-1.05,7-1.05c1.98,0,3.34,0.5,4.03,1.05c0.31,0.25,0.56,0.68,0.74,1.24
			c0.43,1.05,0.37,1.49,0.37,2.91c0.06,7.37,0.12,13.62,0.12,18.76C327.68,366.04,326.69,372.23,324.65,375.51"/>
		<path class="st0" d="M350.08,359.17h-8.73l-0.87,3.03c-0.99,3.72-1.86,6.87-1.86,7.93h-8.11l11.21-32.94
			c0.19-0.43,0.25-0.93,0.25-1.49c0-0.99-0.12-1.61-0.43-1.92c1.55-0.56,3.1-0.81,4.77-0.81c1.98,0,2.97,0.06,4.77,0.56
			c1.92,0.5,3.16,1.8,3.84,3.78l8.73,29.04c0.5,1.67,0.99,3.03,1.24,3.47l0.18,0.31h-12.26L350.08,359.17z M345.63,343.01
			l-2.66,9.97h5.82l-2.66-9.97H345.63z"/>
		<path class="st0" d="M368.13,370.13c-0.06-0.43-0.12-1.55-0.12-3.22c0-2.48,0.12-7.37,0.43-14.74c0.31-7.37,0.5-11.95,0.5-13.81
			c0-1.8-0.43-3.41-0.74-3.9l-0.25-0.43c1.18-0.68,5.2-1.05,12.08-1.05c3.47,0,6.93,0.68,10.34,2.17c3.47,1.49,5.82,4.46,5.82,8.24
			c0,4.46-2.23,8.61-5.88,10.53c1.24,3.96,2.97,6.56,5.02,7.62c2.04,1.05,3.34,1.3,5.51,1.3c0.56,0.68,0.87,1.42,0.87,2.23
			c0,2.97-2.11,6.01-6.75,6.01c-3.53,0-6.44-1.18-8.36-2.85c-2.97-2.85-4.34-6.93-5.39-11.52h-1.73c-0.12,2.11-0.19,4.95-0.19,8.54
			c0,2.54,0.06,4.15,0.12,4.89H368.13z M379.95,339.66l-0.5,10.46c4.52,0,6.75-2.17,6.75-6.44
			C386.2,341.02,384.1,339.66,379.95,339.66"/>
		<path class="st0" d="M424.09,359.17h-8.73l-0.87,3.03c-0.99,3.72-1.86,6.87-1.86,7.93h-8.11l11.21-32.94
			c0.19-0.43,0.25-0.93,0.25-1.49c0-0.99-0.12-1.61-0.43-1.92c1.55-0.56,3.1-0.81,4.77-0.81c1.98,0,2.97,0.06,4.77,0.56
			c1.92,0.5,3.16,1.8,3.84,3.78l8.73,29.04c0.5,1.67,0.99,3.03,1.24,3.47l0.18,0.31h-12.26L424.09,359.17z M419.63,343.01
			l-2.66,9.97h5.82l-2.66-9.97H419.63z"/>
	</g>
</g>
<g id="Layer_2" class="st6">
	<path class="st7" d="M180.28,281.8h-5.34c-0.93,0-1.71-0.78-1.71-1.72v-9.93c0-0.94,0.78-1.72,1.71-1.72h4.37
		c2.93,0,4.78,1.33,4.78,3.59c0,0.95-0.4,1.77-1.28,2.59c1.28,0.58,2.15,1.77,2.15,3.12C184.96,280.15,182.83,281.8,180.28,281.8
		 M179.16,271.17h-2.49v2.61h2.43c1.05,0,1.51-0.66,1.51-1.36C180.6,271.71,180.02,271.17,179.16,271.17 M179.94,276.38h-3.27v2.65
		h3.32c0.78,0,1.5-0.49,1.5-1.31C181.48,276.86,180.76,276.38,179.94,276.38"/>
	<path class="st7" d="M195.08,281.8l-0.93-2.47h-4.8l-0.92,2.47h-3.36l5.18-12.53c0.26-0.62,0.84-0.98,1.51-0.98
		c0.67,0,1.23,0.36,1.49,0.98l5.18,12.53H195.08z M191.76,272.82l-1.47,3.98h2.93L191.76,272.82z"/>
	<path class="st7" d="M210.64,281.9c-0.56,0.08-1.13-0.06-1.57-0.54l-6.21-6.97v7.41h-3.39v-11.79c0-0.94,0.78-1.73,1.73-1.73
		c0.48,0,0.88,0.12,1.3,0.6c1.77,2.01,3.44,3.87,6.23,7.17v-7.63h3.4v11.77C212.13,281.06,211.48,281.78,210.64,281.9"/>
	<path class="st7" d="M221.3,282.02c-4.58,0-7.53-3.07-7.53-6.91s2.91-6.89,7.53-6.89c1.53,0,2.92,0.24,3.94,0.62l-0.75,2.85
		c-0.72-0.24-1.83-0.42-2.71-0.42c-3.31,0-4.48,1.89-4.48,3.84c0,1.93,1.17,3.86,4.48,3.86c0.89,0,1.99-0.18,2.71-0.4l0.75,2.77
		C224.23,281.78,222.71,282.02,221.3,282.02"/>
	<path class="st7" d="M233.21,282.02c-4.16,0-6.95-3.09-6.95-6.89c0-3.8,2.79-6.91,6.95-6.91c4.16,0,6.95,3.11,6.95,6.91
		C240.15,278.92,237.36,282.02,233.21,282.02 M233.21,271.27c-2.25,0-3.52,1.67-3.52,3.86c0,2.19,1.27,3.84,3.52,3.84
		c2.25,0,3.51-1.65,3.51-3.84C236.72,272.94,235.46,271.27,233.21,271.27"/>
	<path class="st7" d="M246.5,282.02c-1.77,0-3.82-0.42-5.51-1.01l0.62-2.69c1.55,0.4,3.42,0.8,4.94,0.8c1.5,0,2.45-0.26,2.45-0.99
		c0-0.58-1.34-1.04-3.86-2.11c-2.49-1.04-3.65-2.09-3.65-4.06c0-2.57,1.72-3.75,5.68-3.75c1.65,0,3.56,0.26,5.04,0.68l-0.5,2.77
		c-1.57-0.32-3.09-0.52-4.5-0.52c-1.89,0-2.31,0.24-2.31,0.72c0,0.66,0.88,0.94,3.27,2.01c2.75,1.22,4.28,1.77,4.28,3.98
		C252.46,281.16,249.31,282.02,246.5,282.02"/>
	<path class="st7" d="M261.54,281.8h-1.71c-0.94,0-1.71-0.78-1.71-1.73v-9.93c0-0.94,0.76-1.72,1.71-1.72h1.45
		c5.65,0,8.88,3.05,8.88,6.69C270.15,278.75,267.17,281.8,261.54,281.8 M262.12,271.47h-0.56v7.27h0.56c2.49,0,4.56-1.03,4.56-3.64
		C266.68,272.5,264.61,271.47,262.12,271.47"/>
	<path class="st7" d="M275.01,271.33v2.23h4.46c0.82,0,1.49,0.62,1.49,1.45c0,0.84-0.67,1.45-1.49,1.45h-4.46v2.43h6.59v2.91h-8.32
		c-0.94,0-1.71-0.78-1.71-1.72v-9.93c0-0.94,0.76-1.72,1.71-1.72h8.34v2.91H275.01z"/>
	<path class="st7" d="M295.87,281.8l-0.93-2.47h-4.8l-0.92,2.47h-3.35l5.18-12.53c0.26-0.62,0.85-0.98,1.51-0.98
		c0.66,0,1.22,0.36,1.48,0.98l5.18,12.53H295.87z M292.56,272.82l-1.47,3.98h2.94L292.56,272.82z"/>
	<path class="st7" d="M301.95,281.8c-0.95,0-1.69-0.78-1.69-1.72v-11.65h3.43v10.42h6.81v2.95H301.95z"/>
	<rect x="311.85" y="268.42" class="st7" width="3.43" height="13.38"/>
	<path class="st7" d="M329,281.8v-6.79l-2.51,3.72c-0.2,0.3-0.62,0.75-1.33,0.75c-0.7,0-1.14-0.46-1.35-0.77l-2.49-3.7v6.79h-3.29
		v-11.83c0-0.93,0.66-1.69,1.64-1.69c0.61,0,1.05,0.24,1.35,0.68l4.14,6.13l4.14-6.13c0.3-0.44,0.77-0.68,1.39-0.68
		c0.91,0,1.61,0.72,1.61,1.65v11.87H329z"/>
	<path class="st7" d="M338.37,271.33v2.23h4.46c0.82,0,1.49,0.62,1.49,1.45c0,0.84-0.67,1.45-1.49,1.45h-4.46v2.43h6.59v2.91h-8.32
		c-0.94,0-1.71-0.78-1.71-1.72v-9.93c0-0.94,0.76-1.72,1.71-1.72h8.34v2.91H338.37z"/>
	<path class="st7" d="M358.2,281.9c-0.57,0.08-1.13-0.06-1.57-0.54l-6.21-6.97v7.41h-3.4v-11.79c0-0.94,0.79-1.73,1.73-1.73
		c0.48,0,0.88,0.12,1.31,0.6c1.77,2.01,3.44,3.87,6.23,7.17v-7.63h3.4v11.77C359.68,281.06,359.04,281.78,358.2,281.9"/>
	<polygon class="st7" points="368.55,271.41 368.55,281.8 365.12,281.8 365.12,271.41 360.8,271.41 360.8,268.42 372.87,268.42 
		372.87,271.41 	"/>
	<path class="st7" d="M379.93,282.02c-4.16,0-6.95-3.09-6.95-6.89c0-3.8,2.79-6.91,6.95-6.91c4.16,0,6.95,3.11,6.95,6.91
		C386.89,278.92,384.09,282.02,379.93,282.02 M379.93,271.27c-2.25,0-3.51,1.67-3.51,3.86c0,2.19,1.26,3.84,3.51,3.84
		c2.25,0,3.51-1.65,3.51-3.84C383.45,272.94,382.18,271.27,379.93,271.27"/>
	<path class="st7" d="M393.23,282.02c-1.77,0-3.81-0.42-5.51-1.01l0.62-2.69c1.55,0.4,3.42,0.8,4.94,0.8c1.5,0,2.45-0.26,2.45-0.99
		c0-0.58-1.35-1.04-3.86-2.11c-2.49-1.04-3.65-2.09-3.65-4.06c0-2.57,1.72-3.75,5.68-3.75c1.65,0,3.56,0.26,5.04,0.68l-0.5,2.77
		c-1.56-0.32-3.09-0.52-4.5-0.52c-1.89,0-2.31,0.24-2.31,0.72c0,0.66,0.88,0.94,3.27,2.01c2.75,1.22,4.28,1.77,4.28,3.98
		C399.19,281.16,396.04,282.02,393.23,282.02"/>
	<path class="st7" d="M408.26,281.8h-1.71c-0.94,0-1.71-0.78-1.71-1.73v-9.93c0-0.94,0.77-1.72,1.71-1.72H408
		c5.65,0,8.88,3.05,8.88,6.69C416.88,278.75,413.91,281.8,408.26,281.8 M408.84,271.47h-0.56v7.27h0.56c2.49,0,4.56-1.03,4.56-3.64
		C413.41,272.5,411.34,271.47,408.84,271.47"/>
	<path class="st7" d="M421.73,271.33v2.23h4.46c0.83,0,1.49,0.62,1.49,1.45c0,0.84-0.66,1.45-1.49,1.45h-4.46v2.43h6.59v2.91h-8.32
		c-0.94,0-1.71-0.78-1.71-1.72v-9.93c0-0.94,0.76-1.72,1.71-1.72h8.33v2.91H421.73z"/>
	<path class="st7" d="M445.17,281.8v-6.79l-2.51,3.72c-0.2,0.3-0.62,0.75-1.33,0.75c-0.7,0-1.14-0.46-1.35-0.77l-2.49-3.7v6.79
		h-3.29v-11.83c0-0.93,0.66-1.69,1.65-1.69c0.6,0,1.04,0.24,1.34,0.68l4.14,6.13l4.14-6.13c0.3-0.44,0.76-0.68,1.39-0.68
		c0.9,0,1.6,0.72,1.6,1.65v11.87H445.17z"/>
	<path class="st7" d="M454.54,271.33v2.23H459c0.82,0,1.48,0.62,1.48,1.45c0,0.84-0.66,1.45-1.48,1.45h-4.46v2.43h6.59v2.91h-8.32
		c-0.94,0-1.71-0.78-1.71-1.72v-9.93c0-0.94,0.77-1.73,1.71-1.73h8.34v2.91H454.54z M457.36,267.52h-2.05l1.83-2.73h3.28
		L457.36,267.52z"/>
	<polygon class="st7" points="470.79,281.8 468.28,277.7 465.79,281.8 461.99,281.8 466.39,275.05 462.09,268.42 465.89,268.42 
		468.28,272.36 470.69,268.42 474.46,268.42 470.19,275.05 474.57,281.8 	"/>
	<rect x="476.1" y="268.42" class="st7" width="3.44" height="13.38"/>
	<path class="st7" d="M488.81,282.02c-4.58,0-7.53-3.07-7.53-6.91s2.92-6.89,7.53-6.89c1.52,0,2.92,0.24,3.94,0.62l-0.74,2.85
		c-0.72-0.24-1.83-0.42-2.71-0.42c-3.31,0-4.48,1.89-4.48,3.84c0,1.93,1.17,3.86,4.48,3.86c0.88,0,1.99-0.18,2.71-0.4l0.74,2.77
		C491.75,281.78,490.23,282.02,488.81,282.02"/>
	<path class="st7" d="M500.72,282.02c-4.16,0-6.95-3.09-6.95-6.89c0-3.8,2.79-6.91,6.95-6.91c4.15,0,6.95,3.11,6.95,6.91
		C507.67,278.92,504.88,282.02,500.72,282.02 M500.72,271.27c-2.25,0-3.52,1.67-3.52,3.86c0,2.19,1.27,3.84,3.52,3.84
		c2.25,0,3.51-1.65,3.51-3.84C504.24,272.94,502.97,271.27,500.72,271.27"/>
	<path class="st7" d="M172.69,253.55c-0.14-1.26-0.28-3.21-0.28-5.58c0-5.02,0.28-16.74,0.98-35.01
		c0.69-18.27,1.11-28.73,1.11-31.38c0-3.9-0.98-7.39-1.68-8.51l-0.56-0.84c2.38-1.53,11.44-2.37,27.34-2.37
		c9.35,0,17.57,1.95,24.69,6c7.11,3.9,10.6,9.49,10.6,16.74c0,6-4.46,12-10.04,14.36v0.69c3.35,1.54,6.56,4.19,9.62,7.81
		c3.07,3.49,4.6,7.95,4.6,13.11c0,16.18-10.46,27.06-34.45,27.06C193.05,255.63,182.45,254.94,172.69,253.55 M209.78,221.47
		c-4.46-3.9-8.51-4.33-11.44-4.33c0,0.42-0.14,2.79-0.28,7.25c-0.14,4.46-0.14,7.95-0.14,10.32c0,4.88,1.39,6.28,4.88,6.28
		c7.11,0,10.74-3.35,10.74-12.28C213.41,225.79,212.15,223.28,209.78,221.47 M199.32,184.93l-0.7,17.43
		c0.7,0.14,1.53,0.14,2.79,0.14c10.04,0,11.16-6.42,11.16-9.07C212.57,187.71,208.11,184.93,199.32,184.93"/>
	<path class="st7" d="M284.53,228.86h-19.66l-1.95,6.84c-2.23,8.37-4.18,15.48-4.18,17.85h-18.27l25.24-74.2
		c0.42-0.98,0.56-2.09,0.56-3.35c0-2.23-0.28-3.63-0.97-4.32c3.49-1.25,6.97-1.81,10.74-1.81c4.46,0,6.7,0.14,10.74,1.25
		c4.32,1.11,7.11,4.04,8.65,8.51l19.66,65.41c1.11,3.77,2.23,6.84,2.79,7.81l0.42,0.7h-27.62L284.53,228.86z M274.48,192.46
		l-6,22.45h13.11l-6-22.45H274.48z"/>
	<path class="st7" d="M359,181.86c3.77,5.16,5.86,9.21,7.67,15.9c2.09,6.56,2.79,9.9,3.9,16.18h1.12l2.09-6.83l4.6-14.92l3.07-10.32
		c2.09-7.95,8.93-11.99,20.5-11.99c3.91,0,8.37,0.97,10.46,1.67l1.39,0.7c0,1.53,0.14,5.3,0.14,6.98c0,6.14-0.14,16.59-0.41,31.38
		c-0.14,14.65-0.28,24.97-0.28,30.69c0,6.42,0.14,10.46,0.28,12.28h-25.53c-0.14-2.65-0.28-5.02-0.28-7.25
		c0-20.92,0.7-37.38,2.23-49.51h-1.25l-16.87,56.77h-13.67c-1.12-6.56-3.49-16.46-7.25-29.85c-3.63-13.39-7.11-22.45-10.32-27.06
		h-1.11c0.28,3.62,0.42,9.62,0.42,17.85c0,4.6,0,11.58-0.14,20.78c-0.14,9.21-0.14,15.34-0.14,18.27h-0.14h-0.14h-0.14h-0.14h-0.14
		h-0.14h-0.14h-0.14h-0.14h-0.14h-0.14h-0.14h-0.14h-0.14h-0.14h-0.14h-0.14h-0.14h-0.14h-0.14h-0.14h-0.14h-0.14h-0.14h-0.14h-0.14
		h-0.14h-0.14h-0.14h-0.14h-0.14h-0.14h-0.14h-0.14h-0.14h-0.14h-0.14h-0.14h-0.14h-0.14h-0.14h-0.14h-0.14h-0.14h-0.14h-0.14h-0.14
		h-0.14h-0.14h-0.14h-0.14h-0.14h-0.14h-0.14h-0.14h-0.14h-0.14h-0.14h-0.14h-0.14h-0.14h-0.14h-0.14h-0.14h-0.14h-0.14h-0.14h-0.14
		H330h-0.14h-0.14h-0.14h-0.14h-0.14h-0.14h-0.14h-0.14h-0.14h-0.14h-0.14h-0.14h-0.14h-0.14h-0.14h-0.14h-0.14h-0.14h-0.14h-0.14
		h-0.14h-0.14h-0.14h-0.14h-0.14h-0.14h-0.14h-0.14h-0.14h-0.14h-0.14h-0.14h-0.14h-0.14h-0.14h-0.14h-0.14h-0.14h-0.14h-0.14h-0.14
		h-0.14H324h-0.14h-0.14h-1.26c-0.14-0.84-0.14-2.23-0.14-4.19c0-7.39,0.28-19.52,0.97-36.68c0.7-17.15,1.11-27.47,1.11-31.1
		c0-5.72-1.81-9.21-2.23-9.35c3.35-1.53,7.39-2.37,12-2.37C345.76,169.86,353.85,174.6,359,181.86"/>
	<path class="st7" d="M444.78,228.02c3.35-5.3,6.14-10.6,8.37-16.04c-4.32-9.63-7.81-15.9-10.74-18.97
		c-2.93-3.2-5.86-4.74-8.79-4.74c-0.7,0-1.95,0.28-3.77,0.97c-2.51-1.67-3.76-4.32-3.76-7.81c0-6,4.74-11.71,14.78-11.71
		c12.41,0,20.22,8.93,28.45,23.02h0.84c9.07-15.2,17.71-22.88,26.08-22.88c5.44,0,10.46,2.79,10.46,9.49c0,5.86-2.93,9.06-8.79,9.48
		c-0.42-0.42-1.26-0.56-2.23-0.56c-2.93,0-5.86,1.54-8.93,4.74c-6,6.14-9.21,12.97-9.21,13.95c9.06,19.67,16.6,29.43,22.59,29.43
		l4.6-0.7c1.25,2.93,1.81,5.58,1.81,7.95c0,6.56-5.16,11.99-17.02,11.99c-9.9,0-19.25-9.48-28.17-28.31h-0.7
		c-8.37,18.83-17.16,28.31-26.22,28.31c-7.11,0-13.11-4.74-13.11-11.3c0-5.44,3.9-10.74,10.04-10.74c0.7,1.54,2.23,2.23,4.6,2.23
		C438.64,235.83,441.57,233.18,444.78,228.02"/>
	<path class="st7" d="M29.25,150.13c0.93,0.53,1.88,1,2.83,1.43c2.08-1.44,4.22-2.83,6.49-4.16c8.07-4.9,17-8.13,26.27-9.66
		c-3.75-6.85-9.43-14.44-17.73-19.15c-18.11-10.26-41.74-2.81-41.74-2.81S11.13,139.87,29.25,150.13"/>
	<path class="st7" d="M76.94,136.71c6.88,0,13.54,0.96,19.86,2.73c3.25-2.89,6.24-6.32,8.53-10.37
		c10.27-18.12,2.82-41.74,2.82-41.74s-24.08,5.76-34.35,23.87c-4.8,8.47-5.73,18.13-5.35,26.03
		C71.26,136.91,74.09,136.71,76.94,136.71"/>
	<path class="st7" d="M76.94,143.22c-45.44,0-52.6,38.73-52.6,52.85c0,14.13,6.96,35.82,24.71,35.82c3.07,0,6.07-0.58,8.91-1.74
		l0.13-0.05l0.13-0.05c5.09-1.81,10.07-4.66,14.88-7.4c7.16-4.09,13.35-7.62,19.5-7.62c7.21,0,13.07,6.06,13.07,13.5
		c0,7.04-5.27,11.71-9.79,15.45c7.84-2.45,20.1-9.79,29.07-27.98c2.88-6.98,8.25-11.14,14.41-11.14c1.79,0,3.47,0.4,4.97,1.05
		C141.81,170.87,112.61,143.22,76.94,143.22 M91.49,158.3c2.52-0.68,5.12,0.82,5.79,3.34c0.68,2.53-0.82,5.12-3.35,5.8
		c-2.53,0.68-5.12-0.82-5.79-3.35C87.46,161.56,88.96,158.97,91.49,158.3 M46.94,175.13c-0.67-2.52,0.83-5.12,3.35-5.8
		c2.53-0.67,5.12,0.82,5.8,3.35c0.68,2.53-0.82,5.12-3.35,5.8C50.22,179.15,47.62,177.65,46.94,175.13 M83.68,211.58
		c-13.9,3.73-28.19-4.53-31.91-18.43l50.34-13.49C105.83,193.57,97.58,207.86,83.68,211.58"/>
	<path class="st7" d="M130.88,218.67c-16.83,34.37-46.8,36.59-46.8,29.81c0-6.77,15.07-11.71,15.07-19.94
		c0-4.05-3.22-6.99-6.56-6.99c-7.89,0-19.36,10.08-32.19,14.65c-3.51,1.42-7.35,2.22-11.36,2.22c-31.38,0-40.04-49.19-17.91-75.91
		c0.19-0.16,0.32-0.4,0.32-0.67c0-0.48-0.4-0.88-0.88-0.88c-0.27,0-0.5,0.12-0.66,0.31c0,0,0.01-0.01,0.01-0.02
		c-11.15,9.24-23.63,25.05-24.45,51.59c-1.1,35.81,31.85,68.97,69.97,68.97c37.54,0,68.96-37.1,68.96-66.23
		C144.35,210.74,135.1,208.16,130.88,218.67"/>
	<g class="st8">
		<polygon class="st0" points="136.76,359.41 133.63,371.12 140.47,371.12 137.34,359.41 		"/>
		<polygon class="st0" points="360.47,359.41 357.34,371.12 364.18,371.12 361.05,359.41 		"/>
		<path class="st0" d="M400.8,355.48l-0.58,12.29c5.31,0,7.93-2.54,7.93-7.57C408.15,357.08,405.67,355.48,400.8,355.48z"/>
		<polygon class="st0" points="299.05,359.41 295.92,371.12 302.76,371.12 299.63,359.41 		"/>
		<path class="st0" d="M177.9,355.15h-0.94c-0.58,17.46-0.87,27.14-0.87,29.1h2.25c3.56,0,6.26-2.11,7.49-5.31
			c1.39-3.27,1.89-6.47,1.89-10.18C187.72,359.66,184.45,355.15,177.9,355.15z"/>
		<polygon class="st0" points="221.47,359.41 218.34,371.12 225.18,371.12 222.05,359.41 		"/>
		<path class="st0" d="M500.61,418.04c-1.21-1.93-2.9-7.98-2.9-14.74c0-1.92-0.21-6.2-0.37-12.83v-42.94
			c0-18.25-14.79-33.05-33.04-33.05H43.35c-0.92,0-1.83,0.05-2.74,0.12c-19.65,0.4-31.12,1.78-34.54,3.99l0.97,1.45
			c1.21,1.93,2.9,7.97,2.9,14.75c0,1.92,0.21,26.75,0.37,33.38v22.39c0,18.25,14.8,33.04,33.05,33.04h420.94
			c0.92,0,1.83-0.05,2.74-0.12c19.65-0.4,31.12-1.77,34.54-3.99L500.61,418.04z M73.96,385.17c-3.49,4.8-9.53,7.2-18.12,7.2
			c-11.64,0-18.7-7.13-18.7-21.61c0-7.28,1.89-12.95,5.75-17.03c3.86-4.08,8.88-6.11,15.21-6.11c7.93,0,13.17,2.91,13.17,7.35
			c0,3.42-2.25,5.09-6.69,5.09c0,0-2.04-5.02-6.69-5.02c-1.82,0-3.28,0.8-4.44,2.47c-2.25,3.28-2.76,7.49-2.76,12.52
			c0,9.46,2.11,14.19,6.4,14.19s5.97-3.2,5.97-7.35c0-3.49-0.29-6.11-0.58-6.91l-0.14-0.58c1.53-0.36,3.85-0.58,6.84-0.58
			c3.64,0,5.46,1.53,5.46,4.58L73.96,385.17z M115.31,364.65c-0.22,6.48-0.37,11.06-0.51,13.61c-0.66,9.9-6.99,14.12-19.43,14.12
			c-3.71,0-7.35-0.87-10.84-2.91c-3.42-2.04-5.75-6.04-5.75-11.21c0-0.22,0.07-3.56,0.15-9.97c0.15-6.47,0.22-11.28,0.22-14.48
			c0-1.96-0.51-3.78-0.87-4.44l-0.29-0.44c0-0.15,3.27-1.24,8.22-1.24c4.95,0,6.04,1.96,6.04,5.09c0,1.89-0.07,5.82-0.14,11.86
			c-0.07,5.97-0.15,10.11-0.15,12.52c0,4.66,1.09,7.06,4.51,7.06c4.15,0,5.24-1.97,5.75-7.13c0.29-3.42,0.44-11.13,0.44-23.28
			c0-1.96-0.51-3.78-0.87-4.44l-0.29-0.44c1.89-0.8,4.66-1.24,8.22-1.24c5.75,0,5.97,2.98,5.97,5.09
			C115.67,354.17,115.53,358.17,115.31,364.65z M145.2,391.28L142,378.4h-10.26l-1.02,3.56c-1.16,4.37-2.18,8.07-2.18,9.31h-9.53
			l13.17-38.71c0.22-0.51,0.29-1.09,0.29-1.75c0-1.17-0.15-1.89-0.51-2.25c1.82-0.66,3.64-0.95,5.6-0.95c2.33,0,3.49,0.07,5.6,0.65
			c2.25,0.58,3.71,2.11,4.51,4.44l10.26,34.12c0.58,1.96,1.16,3.56,1.46,4.08l0.22,0.36H145.2z M200.09,374.94
			c-0.22,1.75-0.73,3.78-1.6,6.18c-0.87,2.33-2.11,4.22-3.64,5.75c-3.13,2.98-9.17,5.53-17.39,5.53c-1.46,0-3.42-0.07-5.82-0.29
			l-6.18-0.51l-2.55-0.29c-0.07-0.94-0.15-2.26-0.15-3.78c0.07-3.56,0.29-9.24,0.66-17.1c0.36-7.86,0.58-13.39,0.58-16.66
			c0-2.11-0.51-3.86-0.87-4.44l-0.29-0.44c0.8-0.8,5.45-1.24,13.97-1.24c8.66,0,15.13,2.69,18.55,6.84
			c3.49,4.15,5.02,8.88,5.02,14.33C200.38,371.16,200.31,373.2,200.09,374.94z M229.91,391.28l-3.2-12.88h-10.26l-1.02,3.56
			c-1.16,4.37-2.18,8.07-2.18,9.31h-9.53l13.17-38.71c0.22-0.51,0.29-1.09,0.29-1.75c0-1.17-0.15-1.89-0.51-2.25
			c1.82-0.66,3.64-0.95,5.6-0.95c2.33,0,3.49,0.07,5.6,0.65c2.25,0.58,3.71,2.11,4.51,4.44l10.26,34.12
			c0.58,1.96,1.16,3.56,1.46,4.08l0.22,0.36H229.91z M270.42,391.28h-22.63c-0.07-0.51-0.15-1.82-0.15-3.78
			c0-2.84,0.22-8.44,0.58-16.81c0.36-8.37,0.58-14.04,0.58-16.95c0-2.04-0.51-3.78-0.87-4.37l-0.29-0.51
			c1.75-0.8,4.51-1.24,8.22-1.24c2.33,0,3.93,0.58,4.73,1.24c0.36,0.29,0.65,0.8,0.87,1.46c0.51,1.24,0.44,1.75,0.44,3.42
			c-0.51,10.55-0.8,19.71-0.94,27.43h8.59c1.96,0,3.71-0.44,4.29-0.73l0.44-0.22c2.4,1.6,3.56,3.35,3.56,5.31
			C277.84,389.38,275.37,391.28,270.42,391.28z M304.29,378.4h-10.26l-1.02,3.56c-1.16,4.37-2.18,8.07-2.18,9.31h-9.53l13.17-38.71
			c0.22-0.51,0.29-1.09,0.29-1.75c0-1.17-0.15-1.89-0.51-2.25c1.82-0.66,3.64-0.95,5.6-0.95c2.33,0,3.49,0.07,5.6,0.65
			c2.25,0.58,3.71,2.11,4.51,4.44l10.26,34.12c0.58,1.96,1.16,3.56,1.46,4.08l0.22,0.36h-14.41L304.29,378.4z M335.82,397.61
			c-2.33,3.85-6.84,5.82-13.46,5.82c-1.96,0-3.78-0.44-5.38-1.39c-1.6-0.94-2.4-2.18-2.4-3.78c0-1.82,1.46-3.56,3.78-3.56
			c0.29,0.51,1.09,0.8,2.47,0.8c3.2,0,5.38-2.33,5.38-10.77c-0.07-14.11-0.07-24.45-0.07-30.99c0-2.04-0.51-3.78-0.87-4.37
			l-0.29-0.51c1.75-0.8,4.51-1.24,8.22-1.24c2.33,0,3.93,0.58,4.73,1.24c0.36,0.29,0.66,0.8,0.87,1.45
			c0.51,1.24,0.44,1.75,0.44,3.42c0.07,8.66,0.15,16.01,0.15,22.04C339.38,386.47,338.22,393.75,335.82,397.61z M368.91,391.28
			l-3.2-12.88h-10.26l-1.02,3.56c-1.16,4.37-2.18,8.07-2.18,9.31h-9.53l13.17-38.71c0.22-0.51,0.29-1.09,0.29-1.75
			c0-1.17-0.15-1.89-0.51-2.25c1.82-0.66,3.64-0.95,5.6-0.95c2.33,0,3.49,0.07,5.6,0.65c2.25,0.58,3.71,2.11,4.51,4.44l10.26,34.12
			c0.58,1.96,1.16,3.56,1.46,4.08l0.22,0.36H368.91z M418.41,392.37c-4.15,0-7.57-1.38-9.82-3.35c-3.49-3.35-5.09-8.15-6.33-13.53
			h-2.04c-0.15,2.47-0.22,5.82-0.22,10.04c0,2.98,0.07,4.87,0.15,5.75H386.9c-0.07-0.51-0.15-1.82-0.15-3.78
			c0-2.91,0.15-8.66,0.51-17.32c0.36-8.66,0.58-14.04,0.58-16.22c0-2.11-0.51-4-0.87-4.58l-0.29-0.51c1.38-0.8,6.11-1.24,14.19-1.24
			c4.07,0,8.15,0.8,12.15,2.55c4.07,1.75,6.84,5.24,6.84,9.68c0,5.24-2.62,10.11-6.91,12.37c1.46,4.66,3.49,7.71,5.89,8.95
			c2.4,1.23,3.93,1.53,6.47,1.53c0.65,0.8,1.02,1.67,1.02,2.62C426.34,388.8,423.86,392.37,418.41,392.37z M455.86,391.28
			l-3.2-12.88H442.4l-1.02,3.56c-1.16,4.37-2.18,8.07-2.18,9.31h-9.53l13.17-38.71c0.22-0.51,0.29-1.09,0.29-1.75
			c0-1.17-0.15-1.89-0.51-2.25c1.82-0.66,3.64-0.95,5.6-0.95c2.33,0,3.49,0.07,5.6,0.65c2.25,0.58,3.71,2.11,4.51,4.44l10.26,34.12
			c0.58,1.96,1.16,3.56,1.46,4.08l0.22,0.36H455.86z"/>
		<polygon class="st0" points="447.42,359.41 444.29,371.12 451.13,371.12 448,359.41 		"/>
	</g>
</g>
</svg>
